<?xml version="1.0" encoding="utf-8"?>
<!-- Svg Vector Icons : http://www.onlinewebfonts.com/icon -->
<!DOCTYPE svg PUBLIC "-//W3C//DTD SVG 1.1//EN" "http://www.w3.org/Graphics/SVG/1.1/DTD/svg11.dtd">
<svg version="1.1" xmlns="http://www.w3.org/2000/svg" xmlns:xlink="http://www.w3.org/1999/xlink" x="0px" y="0px" viewBox="0 0 1000 1000" enable-background="new 0 0 1000 1000" xml:space="preserve">
<metadata> Svg Vector Icons : http://www.onlinewebfonts.com/icon </metadata>
<g><g><g><g><path d="M500,10C229.4,10,10,229.4,10,500c0,270.7,219.4,490,490,490c270.7,0,490-219.3,490-490C990,229.4,770.7,10,500,10z M604.5,688.9c12.7,12.7,12.7,33.5,0,46.2c-12.7,12.7-33.5,12.7-46.2,0L346.5,523.2c-6.4-6.4-9.5-14.8-9.5-23.2c0-8.4,3.1-16.8,9.5-23.2l211.9-211.9c12.7-12.7,33.5-12.7,46.2,0c12.7,12.7,12.7,33.5,0,46.2L415.7,500L604.5,688.9z"/></g></g></g><g></g><g></g><g></g><g></g><g></g><g></g><g></g><g></g><g></g><g></g><g></g><g></g><g></g><g></g><g></g></g>
</svg>