<?xml version="1.0" standalone="no"?>
<!DOCTYPE svg PUBLIC "-//W3C//DTD SVG 20010904//EN"
 "http://www.w3.org/TR/2001/REC-SVG-20010904/DTD/svg10.dtd">
<svg version="1.0" xmlns="http://www.w3.org/2000/svg"
 width="4676.000000pt" height="4676.000000pt" viewBox="0 0 4676.000000 4676.000000"
 preserveAspectRatio="xMidYMid meet">

<g transform="translate(0.000000,4676.000000) scale(0.100000,-0.100000)"
fill="#000000" stroke="none">
<path d="M8915 34465 c-225 -49 -412 -209 -498 -425 -149 -378 66 -813 453
-919 54 -15 271 -39 770 -86 1070 -101 1191 -113 1194 -117 2 -1 161 -896 354
-1988 516 -2910 1187 -6690 1297 -7310 30 -168 217 -1221 415 -2340 199 -1119
399 -2251 446 -2515 111 -622 209 -1179 440 -2480 103 -583 189 -1062 191
-1064 1 -2 21 18 44 45 283 333 732 605 1153 699 75 17 77 18 72 44 -3 14 -69
384 -146 821 -238 1344 -358 2017 -1340 7555 -986 5559 -1107 6240 -1341 7558
-349 1974 -323 1838 -380 1947 -85 162 -225 278 -401 334 -76 24 -193 37
-1302 141 -671 63 -1251 115 -1290 114 -39 0 -98 -6 -131 -14z"/>
<path d="M16720 15748 c19 -11 73 -46 120 -76 433 -280 752 -706 899 -1197
l27 -90 5685 -2 5684 -3 48 149 c157 487 501 917 946 1185 l94 56 -6769 0
-6769 0 35 -22z"/>
<path d="M32355 15710 c356 -217 639 -524 823 -895 59 -120 117 -268 148 -378
l16 -59 366 4 c411 5 423 7 570 79 170 83 306 250 358 439 27 100 25 274 -5
370 -69 223 -224 387 -440 464 l-86 31 -925 3 -925 2 100 -60z"/>
<path d="M15365 15630 c-287 -52 -555 -166 -780 -335 -103 -77 -275 -248 -352
-350 -504 -671 -489 -1582 38 -2230 31 -39 105 -117 164 -173 460 -439 1132
-597 1752 -413 286 86 519 227 744 451 252 250 400 509 483 845 101 407 52
855 -134 1225 -255 507 -711 858 -1266 971 -158 32 -492 37 -649 9z m515 -931
c174 -43 368 -170 477 -314 374 -491 140 -1197 -454 -1370 -464 -136 -956 146
-1084 621 -31 115 -31 316 0 434 123 465 595 744 1061 629z"/>
<path d="M30966 15635 c-48 -8 -138 -28 -200 -44 -657 -176 -1162 -720 -1296
-1396 -28 -138 -38 -399 -21 -540 56 -479 288 -902 655 -1199 122 -99 213
-156 359 -226 811 -389 1771 -123 2279 631 66 98 170 312 207 424 185 569 82
1187 -276 1658 -62 82 -211 235 -298 307 -216 177 -492 308 -780 370 -132 29
-492 37 -629 15z m479 -935 c557 -128 835 -774 552 -1280 -51 -90 -213 -258
-299 -308 -198 -116 -397 -154 -612 -117 -415 73 -716 430 -716 852 0 243 73
432 234 600 224 237 522 326 841 253z"/>
</g>
</svg>
