<svg xmlns="http://www.w3.org/2000/svg" xmlns:xlink="http://www.w3.org/1999/xlink" version="1.1" width="1000" height="1000" viewBox="0 0 1000 1000" xml:space="preserve">
<desc>Created with Fabric.js 3.5.0</desc>
<defs>
</defs>
<rect x="0" y="0" width="100%" height="100%" fill="#ffffff"/>
<g transform="matrix(0 -0.9276 0.9276 0 499.9785 500.0215)" id="184707">
<path style="stroke: none; stroke-width: 1; stroke-dasharray: none; stroke-linecap: butt; stroke-dashoffset: 0; stroke-linejoin: miter; stroke-miterlimit: 4; is-custom-font: none; font-file-url: none; fill: rgb(0,0,0); fill-rule: nonzero; opacity: 1;" vector-effect="non-scaling-stroke" transform=" translate(-500, -500)" d="M 500 10 C 229.4 10 10 229.4 10 500 c 0 270.7 219.4 490 490 490 c 270.7 0 490 -219.3 490 -490 C 990 229.4 770.7 10 500 10 z M 604.5 688.9 c 12.7 12.7 12.7 33.5 0 46.2 c -12.7 12.7 -33.5 12.7 -46.2 0 L 346.5 523.2 c -6.4 -6.4 -9.5 -14.8 -9.5 -23.2 c 0 -8.4 3.1 -16.8 9.5 -23.2 l 211.9 -211.9 c 12.7 -12.7 33.5 -12.7 46.2 0 c 12.7 12.7 12.7 33.5 0 46.2 L 415.7 500 L 604.5 688.9 z" stroke-linecap="round"/>
</g>
</svg>